<svg xmlns="http://www.w3.org/2000/svg" xmlns:xlink="http://www.w3.org/1999/xlink" viewBox="798 -23 810 494"><defs><path id="b" d="M30.133 74.3257s30.0858-17.8102 30.0858-42.3212c0-16.5759-13.4501-31.741-30.0859-31.741C13.4972.2635.0471 15.4286.0471 32.0045c0 25.04 30.0858 42.3212 30.0858 42.3212z"/><filter id="a" width="200%" height="200%" x="-50%" y="-50%" filterUnits="objectBoundingBox"><feOffset dy="2" in="SourceAlpha" result="shadowOffsetOuter1"/><feGaussianBlur in="shadowOffsetOuter1" result="shadowBlurOuter1" stdDeviation="1.5"/><feColorMatrix in="shadowBlurOuter1" values="0 0 0 0 0 0 0 0 0 0 0 0 0 0 0 0 0 0 0.110931839 0"/></filter><filter id="c" width="200%" height="200%" x="-50%" y="-50%" filterUnits="objectBoundingBox"><feGaussianBlur in="SourceAlpha" result="shadowBlurInner1" stdDeviation=".5"/><feOffset dy="1" in="shadowBlurInner1" result="shadowOffsetInner1"/><feComposite in="shadowOffsetInner1" in2="SourceAlpha" k2="-1" k3="1" operator="arithmetic" result="shadowInnerInner1"/><feColorMatrix in="shadowInnerInner1" values="0 0 0 0 1 0 0 0 0 1 0 0 0 0 1 0 0 0 0.263445426 0"/></filter><ellipse id="d" cx="18.7842" cy="18.7165" rx="18.7842" ry="18.7165"/><path id="g" d="M30.133 74.3257s30.0858-17.8102 30.0858-42.3212c0-16.5759-13.4501-31.741-30.0859-31.741C13.4972.2635.0471 15.4286.0471 32.0045c0 25.04 30.0858 42.3212 30.0858 42.3212z"/><filter id="f" width="200%" height="200%" x="-50%" y="-50%" filterUnits="objectBoundingBox"><feOffset dy="2" in="SourceAlpha" result="shadowOffsetOuter1"/><feGaussianBlur in="shadowOffsetOuter1" result="shadowBlurOuter1" stdDeviation="1.5"/><feColorMatrix in="shadowBlurOuter1" values="0 0 0 0 0 0 0 0 0 0 0 0 0 0 0 0 0 0 0.110931839 0"/></filter><filter id="h" width="200%" height="200%" x="-50%" y="-50%" filterUnits="objectBoundingBox"><feGaussianBlur in="SourceAlpha" result="shadowBlurInner1" stdDeviation=".5"/><feOffset dy="1" in="shadowBlurInner1" result="shadowOffsetInner1"/><feComposite in="shadowOffsetInner1" in2="SourceAlpha" k2="-1" k3="1" operator="arithmetic" result="shadowInnerInner1"/><feColorMatrix in="shadowInnerInner1" values="0 0 0 0 1 0 0 0 0 1 0 0 0 0 1 0 0 0 0.263445426 0"/></filter><ellipse id="i" cx="18.7842" cy="18.7165" rx="18.7842" ry="18.7165"/><path id="l" d="M30.133 74.3257s30.0858-17.8102 30.0858-42.3212c0-16.5759-13.4501-31.741-30.0859-31.741C13.4972.2635.0471 15.4286.0471 32.0045c0 25.04 30.0858 42.3212 30.0858 42.3212z"/><filter id="k" width="200%" height="200%" x="-50%" y="-50%" filterUnits="objectBoundingBox"><feOffset dy="2" in="SourceAlpha" result="shadowOffsetOuter1"/><feGaussianBlur in="shadowOffsetOuter1" result="shadowBlurOuter1" stdDeviation="1.5"/><feColorMatrix in="shadowBlurOuter1" values="0 0 0 0 0 0 0 0 0 0 0 0 0 0 0 0 0 0 0.110931839 0"/></filter><filter id="m" width="200%" height="200%" x="-50%" y="-50%" filterUnits="objectBoundingBox"><feGaussianBlur in="SourceAlpha" result="shadowBlurInner1" stdDeviation=".5"/><feOffset dy="1" in="shadowBlurInner1" result="shadowOffsetInner1"/><feComposite in="shadowOffsetInner1" in2="SourceAlpha" k2="-1" k3="1" operator="arithmetic" result="shadowInnerInner1"/><feColorMatrix in="shadowInnerInner1" values="0 0 0 0 1 0 0 0 0 1 0 0 0 0 1 0 0 0 0.263445426 0"/></filter><ellipse id="n" cx="18.7842" cy="18.7165" rx="18.7842" ry="18.7165"/><path id="q" d="M30.133 74.3257s30.0858-17.8102 30.0858-42.3212c0-16.5759-13.4501-31.741-30.0859-31.741C13.4972.2635.0471 15.4286.0471 32.0045c0 25.04 30.0858 42.3212 30.0858 42.3212z"/><filter id="p" width="200%" height="200%" x="-50%" y="-50%" filterUnits="objectBoundingBox"><feOffset dy="2" in="SourceAlpha" result="shadowOffsetOuter1"/><feGaussianBlur in="shadowOffsetOuter1" result="shadowBlurOuter1" stdDeviation="1.5"/><feColorMatrix in="shadowBlurOuter1" values="0 0 0 0 0 0 0 0 0 0 0 0 0 0 0 0 0 0 0.110931839 0"/></filter><filter id="r" width="200%" height="200%" x="-50%" y="-50%" filterUnits="objectBoundingBox"><feGaussianBlur in="SourceAlpha" result="shadowBlurInner1" stdDeviation=".5"/><feOffset dy="1" in="shadowBlurInner1" result="shadowOffsetInner1"/><feComposite in="shadowOffsetInner1" in2="SourceAlpha" k2="-1" k3="1" operator="arithmetic" result="shadowInnerInner1"/><feColorMatrix in="shadowInnerInner1" values="0 0 0 0 1 0 0 0 0 1 0 0 0 0 1 0 0 0 0.263445426 0"/></filter><ellipse id="s" cx="18.7842" cy="18.7165" rx="18.7842" ry="18.7165"/><path id="v" d="M30.133 74.3257s30.0858-17.8102 30.0858-42.3212c0-16.5759-13.4501-31.741-30.0859-31.741C13.4972.2635.0471 15.4286.0471 32.0045c0 25.04 30.0858 42.3212 30.0858 42.3212z"/><filter id="u" width="200%" height="200%" x="-50%" y="-50%" filterUnits="objectBoundingBox"><feOffset dy="2" in="SourceAlpha" result="shadowOffsetOuter1"/><feGaussianBlur in="shadowOffsetOuter1" result="shadowBlurOuter1" stdDeviation="1.5"/><feColorMatrix in="shadowBlurOuter1" values="0 0 0 0 0 0 0 0 0 0 0 0 0 0 0 0 0 0 0.110931839 0"/></filter><filter id="w" width="200%" height="200%" x="-50%" y="-50%" filterUnits="objectBoundingBox"><feGaussianBlur in="SourceAlpha" result="shadowBlurInner1" stdDeviation=".5"/><feOffset dy="1" in="shadowBlurInner1" result="shadowOffsetInner1"/><feComposite in="shadowOffsetInner1" in2="SourceAlpha" k2="-1" k3="1" operator="arithmetic" result="shadowInnerInner1"/><feColorMatrix in="shadowInnerInner1" values="0 0 0 0 1 0 0 0 0 1 0 0 0 0 1 0 0 0 0.263445426 0"/></filter><ellipse id="x" cx="18.7842" cy="18.7165" rx="18.7842" ry="18.7165"/><path id="A" d="M30.133 74.3257s30.0858-17.8102 30.0858-42.3212c0-16.5759-13.4501-31.741-30.0859-31.741C13.4972.2635.0471 15.4286.0471 32.0045c0 25.04 30.0858 42.3212 30.0858 42.3212z"/><filter id="z" width="200%" height="200%" x="-50%" y="-50%" filterUnits="objectBoundingBox"><feOffset dy="2" in="SourceAlpha" result="shadowOffsetOuter1"/><feGaussianBlur in="shadowOffsetOuter1" result="shadowBlurOuter1" stdDeviation="1.5"/><feColorMatrix in="shadowBlurOuter1" values="0 0 0 0 0 0 0 0 0 0 0 0 0 0 0 0 0 0 0.110931839 0"/></filter><filter id="B" width="200%" height="200%" x="-50%" y="-50%" filterUnits="objectBoundingBox"><feGaussianBlur in="SourceAlpha" result="shadowBlurInner1" stdDeviation=".5"/><feOffset dy="1" in="shadowBlurInner1" result="shadowOffsetInner1"/><feComposite in="shadowOffsetInner1" in2="SourceAlpha" k2="-1" k3="1" operator="arithmetic" result="shadowInnerInner1"/><feColorMatrix in="shadowInnerInner1" values="0 0 0 0 1 0 0 0 0 1 0 0 0 0 1 0 0 0 0.263445426 0"/></filter><ellipse id="C" cx="18.7842" cy="18.7165" rx="18.7842" ry="18.7165"/><path id="F" d="M30.133 74.3257s30.0858-17.8102 30.0858-42.3212c0-16.5759-13.4501-31.741-30.0859-31.741C13.4972.2635.0471 15.4286.0471 32.0045c0 25.04 30.0858 42.3212 30.0858 42.3212z"/><filter id="E" width="200%" height="200%" x="-50%" y="-50%" filterUnits="objectBoundingBox"><feOffset dy="2" in="SourceAlpha" result="shadowOffsetOuter1"/><feGaussianBlur in="shadowOffsetOuter1" result="shadowBlurOuter1" stdDeviation="1.5"/><feColorMatrix in="shadowBlurOuter1" values="0 0 0 0 0 0 0 0 0 0 0 0 0 0 0 0 0 0 0.110931839 0"/></filter><filter id="G" width="200%" height="200%" x="-50%" y="-50%" filterUnits="objectBoundingBox"><feGaussianBlur in="SourceAlpha" result="shadowBlurInner1" stdDeviation=".5"/><feOffset dy="1" in="shadowBlurInner1" result="shadowOffsetInner1"/><feComposite in="shadowOffsetInner1" in2="SourceAlpha" k2="-1" k3="1" operator="arithmetic" result="shadowInnerInner1"/><feColorMatrix in="shadowInnerInner1" values="0 0 0 0 1 0 0 0 0 1 0 0 0 0 1 0 0 0 0.263445426 0"/></filter><ellipse id="H" cx="18.7842" cy="18.7165" rx="18.7842" ry="18.7165"/><path id="K" d="M30.133 74.3257s30.0858-17.8102 30.0858-42.3212c0-16.5759-13.4501-31.741-30.0859-31.741C13.4972.2635.0471 15.4286.0471 32.0045c0 25.04 30.0858 42.3212 30.0858 42.3212z"/><filter id="J" width="200%" height="200%" x="-50%" y="-50%" filterUnits="objectBoundingBox"><feOffset dy="2" in="SourceAlpha" result="shadowOffsetOuter1"/><feGaussianBlur in="shadowOffsetOuter1" result="shadowBlurOuter1" stdDeviation="1.5"/><feColorMatrix in="shadowBlurOuter1" values="0 0 0 0 0 0 0 0 0 0 0 0 0 0 0 0 0 0 0.110931839 0"/></filter><filter id="L" width="200%" height="200%" x="-50%" y="-50%" filterUnits="objectBoundingBox"><feGaussianBlur in="SourceAlpha" result="shadowBlurInner1" stdDeviation=".5"/><feOffset dy="1" in="shadowBlurInner1" result="shadowOffsetInner1"/><feComposite in="shadowOffsetInner1" in2="SourceAlpha" k2="-1" k3="1" operator="arithmetic" result="shadowInnerInner1"/><feColorMatrix in="shadowInnerInner1" values="0 0 0 0 1 0 0 0 0 1 0 0 0 0 1 0 0 0 0.263445426 0"/></filter><ellipse id="M" cx="18.7842" cy="18.7165" rx="18.7842" ry="18.7165"/><path id="P" d="M30.133 74.3257s30.0858-17.8102 30.0858-42.3212c0-16.5759-13.4501-31.741-30.0859-31.741C13.4972.2635.0471 15.4286.0471 32.0045c0 25.04 30.0858 42.3212 30.0858 42.3212z"/><filter id="O" width="200%" height="200%" x="-50%" y="-50%" filterUnits="objectBoundingBox"><feOffset dy="2" in="SourceAlpha" result="shadowOffsetOuter1"/><feGaussianBlur in="shadowOffsetOuter1" result="shadowBlurOuter1" stdDeviation="1.5"/><feColorMatrix in="shadowBlurOuter1" values="0 0 0 0 0 0 0 0 0 0 0 0 0 0 0 0 0 0 0.110931839 0"/></filter><filter id="Q" width="200%" height="200%" x="-50%" y="-50%" filterUnits="objectBoundingBox"><feGaussianBlur in="SourceAlpha" result="shadowBlurInner1" stdDeviation=".5"/><feOffset dy="1" in="shadowBlurInner1" result="shadowOffsetInner1"/><feComposite in="shadowOffsetInner1" in2="SourceAlpha" k2="-1" k3="1" operator="arithmetic" result="shadowInnerInner1"/><feColorMatrix in="shadowInnerInner1" values="0 0 0 0 1 0 0 0 0 1 0 0 0 0 1 0 0 0 0.263445426 0"/></filter><ellipse id="R" cx="18.7842" cy="18.7165" rx="18.7842" ry="18.7165"/><path id="U" d="M30.133 74.3257s30.0858-17.8102 30.0858-42.3212c0-16.5759-13.4501-31.741-30.0859-31.741C13.4972.2635.0471 15.4286.0471 32.0045c0 25.04 30.0858 42.3212 30.0858 42.3212z"/><filter id="T" width="200%" height="200%" x="-50%" y="-50%" filterUnits="objectBoundingBox"><feOffset dy="2" in="SourceAlpha" result="shadowOffsetOuter1"/><feGaussianBlur in="shadowOffsetOuter1" result="shadowBlurOuter1" stdDeviation="1.5"/><feColorMatrix in="shadowBlurOuter1" values="0 0 0 0 0 0 0 0 0 0 0 0 0 0 0 0 0 0 0.110931839 0"/></filter><filter id="V" width="200%" height="200%" x="-50%" y="-50%" filterUnits="objectBoundingBox"><feGaussianBlur in="SourceAlpha" result="shadowBlurInner1" stdDeviation=".5"/><feOffset dy="1" in="shadowBlurInner1" result="shadowOffsetInner1"/><feComposite in="shadowOffsetInner1" in2="SourceAlpha" k2="-1" k3="1" operator="arithmetic" result="shadowInnerInner1"/><feColorMatrix in="shadowInnerInner1" values="0 0 0 0 1 0 0 0 0 1 0 0 0 0 1 0 0 0 0.263445426 0"/></filter><ellipse id="W" cx="18.7842" cy="18.7165" rx="18.7842" ry="18.7165"/></defs><g fill="none" fill-rule="evenodd"><path fill="#FFF" d="M1496.144 271.4958s-2.3436 10.3024 2.6778 12.9802c5.0213 2.6778 10.782-1.4774 13.317.6822 2.5348 2.1597 8.4645-.2721 8.4645-6.9673 0-6.695-3.7054-10.3421-.6933-14.045 3.012-3.703-.0534-8.5131-5.8104-6.2441-5.757 2.269-6.5274 4.7405-8.6311 8.1974-2.1038 3.457-9.3245 5.3966-9.3245 5.3966zm62.5227 7.5836s8.8697.0534 8.8697 3.852c0 3.7987 2.7263-2.7337 9.1816-.7244 6.4553 2.0093 14.536 3.8546 18.4812 7.898 3.9452 4.0434 3.1313 7.5277 7.34 12.3366 4.2087 4.8088 5.7645 7.0231-.7878 3.5115-6.5522-3.5115-9.0374-12.2967-13.3418-6.1483-4.3044 6.1483-6.6715 5.9368-10.879-.246-4.2074-6.183-5.9533-11.9278-12.4086-11.9278s-1.8639-2.4305-5.6899-5.491c-3.826-3.0606-.7654-3.0606-.7654-3.0606zm-24.5314-161.353s5.2114 7.063 7.7463 12.6783c2.535 5.6153 1.4589 9.7556 4.615 9.7556 3.1563 0 9.4935-3.4432 2.4393-9.1679-7.0543-5.7247-9.2052-14.6863-13.2697-16.2582-4.0646-1.5719-1.531 2.9922-1.531 2.9922zm14.705 25.5889s-3.109 2.1882-1.5546 5.1791c1.5545 2.991 3.4669 2.3635 8.0098 2.3635 4.543 0 6.2828-2.622 2.1522-5.0823-4.1306-2.4603-8.6075-2.4603-8.6075-2.4603zm4.303 11.8867s3.9204 4.1391.6213 7.801c-3.299 3.662-7.458 4.0174-10.9734 6.5448-3.5153 2.5275-3.8495 4.85 4.9965 4.85 8.8461 0 12.672-1.9398 12.672-7.7328s1.5782-12.6522-2.5584-12.6522c-4.1367 0-4.758 1.1892-4.758 1.1892zm-53.3647 191.793s10.4465-6.6541 20.6806-12.2147c10.234-5.5607 10.0663-11.1077 17-13.3754 6.9337-2.2678 10.1856 3.0183 12.9827-.8611 2.7971-3.8794 3.5153-9.4003 11.0704-7.9788 7.555 1.4216 7.125 1.4501 5.1642 4.7145-1.9608 3.2643.097 7.7786 5.045 10.0824 4.948 2.3039 10.8069-.0273 10.8069-5.9843s.5728-10.4652 3.6333-10.4652c3.0606 0 2.1274 2.541 4.758 8.1974 2.6305 5.6563 4.0881 7.5836 1.0997 11.627-2.9885 4.0435 4.733 5.6153 7.9377 13.02 3.2047 7.4047.1205 15.1647.1205 15.1647l-63.0968 9.8377-37.2022-21.7642zM843.0927 59.9533s-4.9202-.8646-7.4656.8746c-2.5453 1.7391-2.071 5.7837-7.875 7.0777-5.8038 1.294-10.9606 1.5653-9.7519 4.4627 1.2088 2.8975 7.3782 3.2675 3.6891 4.6355-3.689 1.368-15.9225 2.551-15.9225 6.1638 0 3.6129-2.394 5.9541 1.3814 7.644 3.7755 1.6897 1.5957 3.8718-1.9208 5.3385-3.5164 1.4666-11.2836 7.7302-2.783 4.8945 8.5006-2.8358 14.1318-7.3603 22.6324-9.5547 8.5006-2.1944 14.9077-1.6023 19.763-3.9694 4.8552-2.367 3.0869-4.4134 12.1044-.222s13.1608 8.4692 10.7443 15.6444c-2.4164 7.1752-6.905 12.895-3.4525 17.1492 3.4525 4.2543 2.3301 5.301-1.877 12.1314-4.2071 6.8304-16.333 17.3096-12.341 27.814 3.9918 10.5043 6.9677 11.7378 8.4355 18.1853 1.4678 6.4475-3.1924 7.7672 1.295 14.6958 4.4876 6.9285 3.216 11.4653 9.4504 13.524 6.2345 2.0587 4.4449-.5057.7334-9.2956-3.7115-8.7899-8.6733-11.1088-5.4585-15.8182 3.2147-4.7095 4.0557-1.4162 6.1055 4.3652 2.0497 5.7814.454 11.0583 5.0705 15.9035 4.6164 4.8451 8.652 6.646 6.6235 10.64-2.0284 3.994-4.2732 5.2533-.4754 8.2976 3.7979 3.0444 15.4695 12.3658 23.9275 12.3658 8.458 0 8.782-1.0126 14.1755 5.2264 5.3935 6.239 10.4864.3341 13.9591 6.2883 3.4727 5.954-.666 5.4024 6.9061 11.5426 7.5722 6.1403 11.2624 4.6613 11.2624 1.2088 0-3.4525-4.3596.1996-7.811-6.276-3.4514-6.4755-4.3798-6.6571-1.359-11.6626 3.0208-5.0055-.647-10.1097-9.1263-10.1097s5.436-9.4683 2.718-14.2887c-2.718-4.8205-6.0202-4.437-9.6656-1.4297-3.6454 3.0073-.6459 9.197-6.0618 9.197S905.49 224.5706 905.49 208.074s4.3597-14.9526 11.4788-18.6663c7.1192-3.7138 5.4148-.2804 14.6061-1.997 9.1913-1.7168 9.7946-4.363 15.1242-1.183 5.3295 3.18 2.4377 9.8528 6.2568 12.6112 3.8192 2.7585 7.2493 4.206 7.2493-5.1893 0-9.3955-6.8176-12.5755 2.8694-17.47 9.687-4.8944 12.017-3.4648 17.2815-12.8714 5.2645-9.4066 5.0717-13.0195 14.5209-15.4975 9.4492-2.4781 2.8044-7.1876 9.7946-9.8014 6.9902-2.6137 5.999 4.6108 12.665 2.3055 6.6662-2.3054 20.021-3.9953 13.9805-7.348-6.0405-3.3526-14.9739-4.9057-7.487-11.0953 7.487-6.1895 9.493-6.0909 11.7154-3.0454 2.2225 3.0454-3.6016 8.7159 5.028 8.7159 8.6295 0 10.0749 5.4506 12.923 1.7268 2.8481-3.7239.2153-6.3993-1.9421-10.6524s5.7814-10.02.2803-12.8468c-5.501-2.8268-2.9546-18.0597-9.6219-18.0597s-12.082 10.0906-14.6498 2.7741c-2.5678-7.3165 1.5956-11.5146-7.94-11.5146-9.5355 0-10.3126 2.293-10.3126 6.9038s-6.9689.4743-5.8039 5.3755c1.165 4.9013 5.2657 7.2616-3.3437 10.0974-8.6094 2.8358-4.0995 2.6508-7.1203 7.6933-3.0208 5.0425-9.3415 5.8677-7.0978-.9128 2.2437-6.7805 5.9754-4.863-1.2088-8.4199-7.1842-3.5567-22.9777-7.904-13.6788-13.7225 9.299-5.8184 14.5848-4.918 19.2024-8.4198 4.6175-3.5019 1.5103 1.6146 9.299-.6414 7.7885-2.256 11.9743 2.5902 11.9743-1.7257 0-4.316-6.1279-2.2011 3.0847-8.2853 9.2127-6.0842 7.9837-10.6591 14.4559-8.3717 6.4721 2.2875 7.552 5.4137 3.0208 8.754-4.5312 3.3404-6.4307 4.6972-10.5941 4.6972-4.1634 0-7.2481 1.5541-3.624 3.2428 3.624 1.6887 6.1918-2.3312 10.205.702 4.013 3.033 4.6825 8.8526 11.435 5.9428 6.7525-2.9097 11.693-3.513 8.1765-9.0489-3.5164-5.5359-1.8333-3.9223 3.4738-1.9611 5.3072 1.9611 7.3569-.258 7.3569-3.7598s-7.5296-2.3177-7.5296-7.6562c0-5.3386.4317-5.5606-6.6235-7.1506-7.0552-1.59-1.3366-7.386-10.9383-5.9059-9.6017 1.4801-17.5204-1.7638-21.6625 2.071-4.142 3.835.4979 5.592-3.3 8.976-3.7978 3.3842-8.652 3.4145-8.652-.8633s.065-5.2522-4.7464-2.6261c-4.8115 2.626-.388 8.2483-3.9268 8.2483-3.5389 0-7.9389 3.642-14.9515 1.1336-7.0126-2.5083-9.6443-2.9086-14.7149-1.4543-5.0705 1.4543-10.8957 3.2294-14.7574-1.036-3.8618-4.2655-8.4995-4.2902-15.6198-4.2902s-27.722 5.2522-38.5123 2.6261c-10.7903-2.626-12.2132-8.0756-25.9772-5.3508-13.764 2.7247-23.5183 6.1223-23.5183 6.1223zm98.8835 151.8299s1.8979-4.7788 10.198-4.7788c8.3003 0 10.157 3.1454 15.12 6.1607 4.963 3.0153 7.8612 6.8045 1.6051 6.8045-6.256 0-9.3014 2.9546-10.4896-.6796-1.1882-3.6342-2.3563-7.3041-6.5692-7.3041-4.213 0-9.8643-.2027-9.8643-.2027zm32.9093 5.2188s3.7523 4.9695.0618 4.9694c-3.6906 0-10.5937 1.0254-5.2969 3.1465 5.2969 2.1211 12.7224 3.6472 15.6835.2504 2.961-3.3968.6342-6.2452-3.7545-8.3187-4.3887-2.0734-6.694-.0476-6.694-.0476zm-7.5361 30.1703s-3.9832 8.079-7.4244 8.079c-3.4413 0-7.5914-.3576-3.7957 4.1827 3.7957 4.5403 5.1928 10.9285-.7089 15.4807-5.9016 4.5522-14.9952 15.1578-9.9064 25.0014 5.0887 9.8436 11.7197 16.8508 14.2852 24.0368s8.5094 11.8455 16.2883 17.3038c7.7788 5.4583 7.5079 10.6413 7.5079 21.3195 0 10.6782 6.089 32.9266 3.0445 38.2418-3.0445 5.3153-1.6691 14.23 3.6494 24.323 5.3185 10.0928 6.8912 27.9299 17.4014 33.9724 10.5101 6.0425 10.7811 10.7736 17.8511 10.7736 7.07 0 6.487-1.085-1.0004-8.414-7.4873-7.329-10.8245-7.5296-6.966-14.4782 3.8586-6.9486-4.3376-8.5781-2.1688-12.537 2.1689-3.959 2.0431-17.3385 9.4264-18.9004 7.3832-1.5618 6.6733-5.4236 11.2407-13.2046 4.5674-7.781 14.1606-13.4778 14.1606-20.6161 0-7.1383-3.8368-15.0705 9.927-19.1388 13.764-4.0683 13.2633-13.8832 13.2633-23.7149 0-9.8316.8335-11.0586 6.6733-19.1864 5.8398-8.1279 6.798-14.992-6.5693-22.1184-13.3672-7.1263-28.7786-8.079-31.5945-13.1797-2.8159-5.1006-3.9593-19.7588-15.2434-19.7588-11.284 0-16.7044-4.3636-16.7044-10.9155 0-6.552-3.8586-6.3514-10.9492-6.3514-7.0906 0-14.7025-.167-19.9994-4.9218-5.2968-4.755-11.6883 4.7213-11.6883 4.7213zm98.8686-212.3899s-8.9861-1.68-6.1726 2.9676c2.8136 4.6476 6.902 5.5765 14.2224 5.5765s8.1127 1.383 6.966 6.1498-.9386 8.2221 1.3136 10.3194c2.2523 2.0973-6.9443.917-6.9443 6.721s-1.4187 18.675 5.13 18.675c6.5486 0 5.5265 6.6006 10.4483 3.3003 4.9218-3.3004 5.944-14.7297 13.9309-16.7912 7.987-2.0615 14.9941-5.5741 24.0454-7.6618 9.0513-2.0877 19.207-2.5514 19.207-8.557 0-6.0057.167-4.4211 6.3818-8.866 6.2149-4.445.7707-8.6395 5.9851-11.4402 5.2145-2.8006 24.2763-5.5537 15.1621-7.7463-9.1141-2.1926-18.4353-1.1326-31.3658-3.0868-12.9304-1.9542-26.6727-.4054-37.017 2.4191-10.3444 2.8246-25.2767 6.6257-29.9482 5.1007-4.6714-1.525-11.3447 2.9199-11.3447 2.9199zm84.8673 33.7796s-7.5708-2.7769-10.8029-.5485c-3.232 2.2285-.9592 3.8607 2.5861 6.4707s7.6965 3.1772 13.3478.31c5.6512-2.8672 8.7164-5.7206 4.3582-7.1503-4.3582-1.4296-9.4892.918-9.4892.918zm87.1737-12.2867s-9.177 3.4445-14.7448 9.9152c-5.5678 6.4706-7.5697 9.2356-13.2632 11.154-5.6935 1.9184-7.987 1.5965-5.6307 9.2356 2.3564 7.639 3.9626 9.152 9.5098 4.576s9.0817 4.148 7.9664 6.3048c-1.1153 2.1569-1.0232 6.2907 5.6718 3.1454 6.695-3.1454 2.3986-8.7338 6.4447-10.6056 4.046-1.8718-.2504-4.2433-.2504-8.4498 0-4.2064 4.796-10.7128 9.9682-10.7128 5.1722 0 6.2366 2.4795 1.3982 5.326-4.8383 2.8466-7.1751 4.4937-3.5875 9.1652 3.5875 4.6714 9.3006 6.9594 3.5659 9.5455-5.7348 2.5861-.7078 4.898-6.0263 6.8522-5.3185 1.9542-8.594 4.3961-12.8893 3.0619-4.2953-1.3342-3.5236-2.74-6.9648-1.37-3.4413 1.37-3.0663-1.9195-3.0663-5.2318 0-3.3123-1.6052-7.0906-3.8574-2.3357-2.2523 4.7549-2.0865 9.2605-4.9847 10.845-2.8983 1.5847-7.2781 3.5866-11.5323 8.1626-4.2541 4.576-4.0254 5.2676-8.1755 5.2676-4.1501 0-1.7721 1.382-6.2355 1.382-4.4633 0-9.8436.7153-4.9218 3.1344 4.9218 2.4192 8.1962 3.2072 8.1962 5.9472 0 2.74 3.671 8.079.7717 8.079-2.8994 0-8.1973-.6795-11.9713-.6795-3.774 0-9.5715-1.834-9.5715 4.434 0 6.268.208 8.2471-1.6898 11.3925-1.8978 3.1454-2.3769 3.4673 2.753 6.554 5.13 3.087 6.2138 6.15 13.3467 3.075s7.5708-5.2676 11.1995-10.3205c3.6288-5.053 9.009-2.9904 9.009-10.9275 0-7.937 6.8815-1.1792 11.1573-2.6934 4.2758-1.5141 3.2733-1.823 9.176 4.2661s12.8881 6.6972 12.8881 9.5932c0 2.8961-4.3159 3.0143-7.0689 4.3138-2.753 1.2996-2.3563 2.8354 2.3563 4.3018 4.7126 1.4665 2.1265.942 5.9016-3.8368s7.9252-3.8607 3.9626-9.1164c-3.9626-5.2556-9.1749-4.4806-11.3653-9.8078-2.1905-5.3272-3.1075-7.6033 3.4618-2.3119 6.5693 5.2914 10.3856 6.1607 12.575 9.1402 2.1893 2.9795-1.0221 5.791 3.2114 11.5951 4.2336 5.8041 4.1079 11.5486 7.5285 3.6353 3.4207-7.9133-2.3151-12.3224 4.046-12.3224 6.3612 0 .5626 3.3372 3.837 7.8298 3.2743 4.4926 3.4618 7.8645 10.6358 7.8645 7.1741 0 6.3829-4.4222 11.8672-.2027 5.4844 4.2195 1.188 10.9405 1.188 10.9405s-.6872-4.4688-.6872 2.0019c0 6.4706-1.0438 8.6394 4.6497 16.2308 5.6935 7.5913 12.305 14.9334 12.305 20.1402 0 5.207 9.8632 13.3467 12.0743 20.2108 2.211 6.864 1.2507 9.4632 10.365 5.7921 9.1141-3.671 20.2085-8.8909 25.902-12.692 5.6935-3.801 14.6397-14.4554 9.176-18.8169-5.4638-4.3614-11.1985-9.0556-15.7659-6.3514-4.5673 2.7043-5.338.297-8.8215-3.993-3.4835-4.2898-12.1381-8.6632-8.8432-11.6427 3.295-2.9796 3.4835 2.8722 10.5741 7.2575 7.0906 4.3853 13.5548 3.0153 18.2056 5.6968 4.6509 2.6814 7.7572 2.4549 15.8287 2.4549s6.7156-1.5022 12.68 6.0891c5.9645 7.5914 5.9223 11.2136 11.3448 9.6886.0789-.0221 8.9049 32.9457 15.2306 33.0977 4.6797.1125 5.0093-16.6805 11.5488-19.0863 4.0577-1.4928 5.691-7.3923 7.842-11.75 2.151-4.3579 3.2045-6.6332 8.2484-7.3227 3.7-.5058 6.7221 3.8348 10.9026 3.729 4.629-.1171 3.6992 10.0427 8.221 12.6932 3.3986 1.992 5.4501 23.0318 9.9495 25.098.641.2944 17.0914 20.6856 18.0998 17.7332.6313-1.8484-5.246-16.104-5.246-16.104s-7.2414-4.3145-8.7892-7.8732c-1.8342-4.217 1.9946-7.7978 2.2715-7.9058 1.3557-.5288 8.1339 9.0234 13.0547 10.7886 3.909 1.4023 5.8957-4.8288 8.4162-5.5196 4.4901-1.2307 2.1926-11.6292 0-13.5667-4.9729-4.3943-10.9958-15.0092-8.4162-17.7051 5.1111-5.3417 18.3888-2.346 21.1566-3.075 6.8908-1.8149 11.655-14.405 12.5515-17.1607 3.0133-9.2632-9.2524-25.6034-9.2524-25.6034s-14.1309-6.6436-12.5764-6.6436c1.5545 0 4.9051-6.842 9.2773-5.98 2.8273.5575 7.1112 4.7362 9.6823 5.98 6.551 3.1692 5.7225 6.8997 9.9707 11.3717 2.9696 3.1261 5.7748 1.0155 8.4397 0 .722-.2751-4.4737-10.6333-4.9257-11.3717-2.7498-4.4926 1.4584-10.0403 4.9257-12.3224 4.3513-2.864.7113-7.5188 3.324-9.7363 4.543-3.856-6.6332-17.4988-8.2497-17.7092-10.6155-1.382-15.7562-8.1326-15.7562-9.057 0-5.8737 2.3243-8.1507 5.1407-10.7245 5.5714-5.0915 14.8435 2.6379 21.6623 0 1.3464-.5209 8.2782-.7963 12.0022 3.0619 3.1647 3.2787 2.9602 10.4293 6.2168 13.5364 7.5187 7.1738 11.5003 10.7125 14.895 7.7887 3.3948-2.9239-4.28-8.8331-3.0133-16.764.424-2.6544 5.2689-4.6825 6.4081-7.623.376-.9707 1.6288-4.434 4.5666-5.8756 3.2352-1.5875 8.1447-1.1912 7.6991-3.0603-.7313-3.0678-14.8532-8.6067-12.2657-9.5916 5.5954-2.1298 17.43 4.2745 17.43 2.1298 0-9.1651-34.3503-8.9397-35.7198-9.1651-9.7072-1.5983-30.7197-1.1153-32.7798-1.5983-15.9004-3.7278-30.888-3.356-34.6922-3.7278-21.8288-2.1336-29.4807-.8388-35.4577-2.571-16.8866-4.894-36.3885-5.2987-38.8628-6.153-11.8063-4.0764-15.3646-5.195-15.3646-5.195s-35.231-11.8097-45.221-7.5675c-9.9898 4.2423-13.159-3.0044-17.747.8574-4.588 3.8618-12.472 10.9881-22.774 10.9881-10.3022 0-18.2068-3.1594-22.6278.917-4.421 4.0764-21.3542-1.7504-30.6559-5.195-9.3017-3.4445-13.5342-2.6933-16.7879-2.6933-3.2537 0-6.7362 2.0495-6.7362 2.0495zm-49.5725 46.9528c-2.6695-3.813.375-9.2117-3.3578-11.3209-3.7328-2.1092-9.8642-1.2984-9.8642 2.8126 0 4.1111.7706 7.3172 4.6715 9.1998 3.9008 1.8827 4.5673 5.6003.8345 5.6003s-4.7126 2.4084-4.7126 6.0187 3.9203 3.1215 8.1745 1.5608c4.2541-1.5608 13.597-4.6953 8.9256-8.9375-4.6715-4.2423-2.002-1.1207-4.6715-4.9338zm-20.2497-.2384s-4.1913.4292-4.1913 2.7768c0 2.3477-4.4644 6.2572-.9603 8.1756 3.5041 1.9184 6.9465-2.8246 9.7818-2.8246 2.8354 0 5.8377-5.9113 2.9189-7.6986-2.9189-1.7873-7.5491-.4292-7.5491-.4292zm3.0294 64.1753s-.9603 2.5861-5.4649 4.6238c-4.5045 2.0376-5.4854 4.731-6.6527 9.319-1.1673 4.588-2.3769 8.0802-6.4435 9.629-4.0667 1.5488-8.4877 3.67-11.762 11.6905-3.2744 8.0206-5.4421 8.8064-3.837 13.7162 1.6053 4.91 4.1079 5.388 1.4178 11.2982-2.6902 5.9103-7.8624 6.5899-3.295 13.0009s11.179 9.4144 12.4297 16.2427c1.2508 6.8283 5.5895 11.942 12.7213 13.5027 7.1318 1.5608 8.5917-4.3636 15.265-2.1818 6.6734 2.1818 8.3848-1.06 15.9339-3.193 7.549-2.133 7.5079 1.3949 11.929 4.9337 4.421 3.5388 11.7197-3.2407 11.7197 4.588 0 7.8287-7.3399 8.9028-2.2934 14.9323 5.0464 6.0295 11.866 20.2227 11.866 25.3471 0 5.1245 2.4073 10.2436-1.2637 14.5216-3.671 4.278-6.4858 8.6644-4.0667 15.445 2.4192 6.7806 8.4455 13.894 8.4455 17.4458 0 3.5518-2.4593 13.396 1.6691 15.4212 4.1284 2.0251 5.5472 7.5447 7.0906 12.6085s-3.399 10.2956 7.341 10.2956 21.313.3116 27.8823-10.2837c6.5693-10.5953 9.3223-16.3988 12.951-18.6987 3.6288-2.3 7.5708-5.959 5.0682-11.9528-2.5027-5.9938.4172-11.8921 5.9016-15.0386 5.4843-3.1464 9.9899-6.554 8.8215-14.6343-1.1684-8.0801-2.1276-10.094-2.1276-16.66 0-6.566-1.939-17.0892 8.634-26.277 10.573-9.188 16.0379-12.3344 20.6259-23.6553 4.588-11.3209 8.674-21.4149 3.6905-19.7349-4.9836 1.68-17.5596 7.4136-20.938 3.7068-3.3784-3.7068-4.3365-12.2866-8.1745-12.2866s-12.5337-14.4685-12.5337-20.3788c0-5.9102-1.7732-11.1431-6.0274-14.515-4.2541-3.3719-6.0273-24.0877-16.3088-21.4615-10.2815 2.6262-14.785-.6666-18.6435-2.5861-3.8585-1.9195-8.7803-2.43-10.2609 2.5146-1.4805 4.9445-6.5692 4.9088-10.6153.4877-4.046-4.421-5.1624-1.1099-10.948-5.2925-5.7857-4.1826.0205-4.7777-1.8979-10.224-1.9184-5.4464-.8768-3.5519-9.8436-3.5519-8.9668 0-13.2426-.8822-17.3092 2.4073-4.0667 3.2895-5.6513 5.0887-9.2594 5.0887-3.6082 0-11.437-.1604-11.437-.1604zm287.427 93.4692s5.4514 5.0425 8.8946 12.6112c3.4433 7.5687 6.6243 15.4505 11.7637 17.241 5.1394 1.7907 13.1244 4.2212 8.2-2.418-4.9245-6.6392-7.9365-11.6805-12.2645-15.3424-4.328-3.662-10.09-11.4493-13.3418-13.5804-3.252-2.131-3.252 1.4886-3.252 1.4886z"/><g transform="translate(1079.1438 -21.75)"><use fill="#000" filter="url(#a)" xlink:href="#b"/><use fill="#9726FA" xlink:href="#b"/><use fill="#000" filter="url(#c)" xlink:href="#b"/><g transform="translate(10.9815 12.2908)"><mask id="e" fill="#fff"><use xlink:href="#d"/></mask><path fill="#FFF" d="M37.9844 37.753s-1.0797-4.7924-1.3742-5.6726c-.687-1.9561-4.0245-3.521-5.8895-4.01-2.1595-.5868-6.6747-1.467-6.6747-1.467s-1.7669-3.032-.3927-4.01c1.178-.8803 3.043-3.032 3.9264-4.9881.7852-1.9561.7852-7.6288.0981-11.1498C26.5.4895 19.2362.685 19.2362.685s-7.2637.1957-8.4416 6.1618c-.6871 3.6187-.6871 8.9002.1963 10.8563.7853 1.956 2.7485 4.1078 3.9264 4.988 1.276 1.0759-.3927 4.01-.3927 4.01s-4.5153.7825-6.6747 1.4671c-1.7669.489-5.2024 2.1517-5.8895 4.01C1.2733 34.1343.6843 37.851.6843 37.851h37.3001v-.0978z" mask="url(#e)"/></g><ellipse cx="29.7673" cy="31.0115" stroke="#FFF" stroke-width="2.25" rx="20.4918" ry="20.4181"/></g><g transform="translate(934.7828 4.3083)"><use fill="#000" filter="url(#f)" xlink:href="#g"/><use fill="#F44157" xlink:href="#g"/><use fill="#000" filter="url(#h)" xlink:href="#g"/><g transform="translate(10.9815 12.2908)"><mask id="j" fill="#fff"><use xlink:href="#i"/></mask><path fill="#FFF" d="M37.9844 37.753s-1.0797-4.7924-1.3742-5.6726c-.687-1.9561-4.0245-3.521-5.8895-4.01-2.1595-.5868-6.6747-1.467-6.6747-1.467s-1.7669-3.032-.3927-4.01c1.178-.8803 3.043-3.032 3.9264-4.9881.7852-1.9561.7852-7.6288.0981-11.1498C26.5.4895 19.2362.685 19.2362.685s-7.2637.1957-8.4416 6.1618c-.6871 3.6187-.6871 8.9002.1963 10.8563.7853 1.956 2.7485 4.1078 3.9264 4.988 1.276 1.0759-.3927 4.01-.3927 4.01s-4.5153.7825-6.6747 1.4671c-1.7669.489-5.2024 2.1517-5.8895 4.01C1.2733 34.1343.6843 37.851.6843 37.851h37.3001v-.0978z" mask="url(#j)"/></g><ellipse cx="29.7673" cy="31.0115" stroke="#FFF" stroke-width="2.25" rx="20.4918" ry="20.4181"/></g><g transform="translate(1144.9464 82.2096)"><use fill="#000" filter="url(#k)" xlink:href="#l"/><use fill="#3A95FF" xlink:href="#l"/><use fill="#000" filter="url(#m)" xlink:href="#l"/><g transform="translate(10.9815 12.2908)"><mask id="o" fill="#fff"><use xlink:href="#n"/></mask><path fill="#FFF" d="M37.9844 37.753s-1.0797-4.7924-1.3742-5.6726c-.687-1.9561-4.0245-3.521-5.8895-4.01-2.1595-.5868-6.6747-1.467-6.6747-1.467s-1.7669-3.032-.3927-4.01c1.178-.8803 3.043-3.032 3.9264-4.9881.7852-1.9561.7852-7.6288.0981-11.1498C26.5.4895 19.2362.685 19.2362.685s-7.2637.1957-8.4416 6.1618c-.6871 3.6187-.6871 8.9002.1963 10.8563.7853 1.956 2.7485 4.1078 3.9264 4.988 1.276 1.0759-.3927 4.01-.3927 4.01s-4.5153.7825-6.6747 1.4671c-1.7669.489-5.2024 2.1517-5.8895 4.01C1.2733 34.1343.6843 37.851.6843 37.851h37.3001v-.0978z" mask="url(#o)"/></g><ellipse cx="29.7673" cy="31.0115" stroke="#FFF" stroke-width="2.25" rx="20.4918" ry="20.4181"/></g><g transform="translate(1324.8366 100.111)"><use fill="#000" filter="url(#p)" xlink:href="#q"/><use fill="#01D3DD" xlink:href="#q"/><use fill="#000" filter="url(#r)" xlink:href="#q"/><g transform="translate(10.9815 12.2908)"><mask id="t" fill="#fff"><use xlink:href="#s"/></mask><path fill="#FFF" d="M37.9844 37.753s-1.0797-4.7924-1.3742-5.6726c-.687-1.9561-4.0245-3.521-5.8895-4.01-2.1595-.5868-6.6747-1.467-6.6747-1.467s-1.7669-3.032-.3927-4.01c1.178-.8803 3.043-3.032 3.9264-4.9881.7852-1.9561.7852-7.6288.0981-11.1498C26.5.4895 19.2362.685 19.2362.685s-7.2637.1957-8.4416 6.1618c-.6871 3.6187-.6871 8.9002.1963 10.8563.7853 1.956 2.7485 4.1078 3.9264 4.988 1.276 1.0759-.3927 4.01-.3927 4.01s-4.5153.7825-6.6747 1.4671c-1.7669.489-5.2024 2.1517-5.8895 4.01C1.2733 34.1343.6843 37.851.6843 37.851h37.3001v-.0978z" mask="url(#t)"/></g><ellipse cx="29.7673" cy="31.0115" stroke="#FFF" stroke-width="2.25" rx="20.4918" ry="20.4181"/></g><g transform="translate(1263.906 232.7567)"><use fill="#000" filter="url(#u)" xlink:href="#v"/><use fill="#F5A623" xlink:href="#v"/><use fill="#000" filter="url(#w)" xlink:href="#v"/><g transform="translate(10.9815 12.2908)"><mask id="y" fill="#fff"><use xlink:href="#x"/></mask><path fill="#FFF" d="M37.9844 37.753s-1.0797-4.7924-1.3742-5.6726c-.687-1.9561-4.0245-3.521-5.8895-4.01-2.1595-.5868-6.6747-1.467-6.6747-1.467s-1.7669-3.032-.3927-4.01c1.178-.8803 3.043-3.032 3.9264-4.9881.7852-1.9561.7852-7.6288.0981-11.1498C26.5.4895 19.2362.685 19.2362.685s-7.2637.1957-8.4416 6.1618c-.6871 3.6187-.6871 8.9002.1963 10.8563.7853 1.956 2.7485 4.1078 3.9264 4.988 1.276 1.0759-.3927 4.01-.3927 4.01s-4.5153.7825-6.6747 1.4671c-1.7669.489-5.2024 2.1517-5.8895 4.01C1.2733 34.1343.6843 37.851.6843 37.851h37.3001v-.0978z" mask="url(#y)"/></g><ellipse cx="29.7673" cy="31.0115" stroke="#FFF" stroke-width="2.25" rx="20.4918" ry="20.4181"/></g><g transform="translate(1188.906 217.7567)"><use fill="#000" filter="url(#z)" xlink:href="#A"/><use fill="#DF6513" xlink:href="#A"/><use fill="#000" filter="url(#B)" xlink:href="#A"/><g transform="translate(10.9815 12.2908)"><mask id="D" fill="#fff"><use xlink:href="#C"/></mask><path fill="#FFF" d="M37.9844 37.753s-1.0797-4.7924-1.3742-5.6726c-.687-1.9561-4.0245-3.521-5.8895-4.01-2.1595-.5868-6.6747-1.467-6.6747-1.467s-1.7669-3.032-.3927-4.01c1.178-.8803 3.043-3.032 3.9264-4.9881.7852-1.9561.7852-7.6288.0981-11.1498C26.5.4895 19.2362.685 19.2362.685s-7.2637.1957-8.4416 6.1618c-.6871 3.6187-.6871 8.9002.1963 10.8563.7853 1.956 2.7485 4.1078 3.9264 4.988 1.276 1.0759-.3927 4.01-.3927 4.01s-4.5153.7825-6.6747 1.4671c-1.7669.489-5.2024 2.1517-5.8895 4.01C1.2733 34.1343.6843 37.851.6843 37.851h37.3001v-.0978z" mask="url(#D)"/></g><ellipse cx="29.7673" cy="31.0115" stroke="#FFF" stroke-width="2.25" rx="20.4918" ry="20.4181"/></g><g transform="translate(987.3648 248.6872)"><use fill="#000" filter="url(#E)" xlink:href="#F"/><use fill="#7ED321" xlink:href="#F"/><use fill="#000" filter="url(#G)" xlink:href="#F"/><g transform="translate(10.9815 12.2908)"><mask id="I" fill="#fff"><use xlink:href="#H"/></mask><path fill="#FFF" d="M37.9844 37.753s-1.0797-4.7924-1.3742-5.6726c-.687-1.9561-4.0245-3.521-5.8895-4.01-2.1595-.5868-6.6747-1.467-6.6747-1.467s-1.7669-3.032-.3927-4.01c1.178-.8803 3.043-3.032 3.9264-4.9881.7852-1.9561.7852-7.6288.0981-11.1498C26.5.4895 19.2362.685 19.2362.685s-7.2637.1957-8.4416 6.1618c-.6871 3.6187-.6871 8.9002.1963 10.8563.7853 1.956 2.7485 4.1078 3.9264 4.988 1.276 1.0759-.3927 4.01-.3927 4.01s-4.5153.7825-6.6747 1.4671c-1.7669.489-5.2024 2.1517-5.8895 4.01C1.2733 34.1343.6843 37.851.6843 37.851h37.3001v-.0978z" mask="url(#I)"/></g><ellipse cx="29.7673" cy="31.0115" stroke="#FFF" stroke-width="2.25" rx="20.4918" ry="20.4181"/></g><g transform="translate(924.8904 118.0123)"><use fill="#000" filter="url(#J)" xlink:href="#K"/><use fill="#6A22FF" xlink:href="#K"/><use fill="#000" filter="url(#L)" xlink:href="#K"/><g transform="translate(10.9815 12.2908)"><mask id="N" fill="#fff"><use xlink:href="#M"/></mask><path fill="#FFF" d="M37.9844 37.753s-1.0797-4.7924-1.3742-5.6726c-.687-1.9561-4.0245-3.521-5.8895-4.01-2.1595-.5868-6.6747-1.467-6.6747-1.467s-1.7669-3.032-.3927-4.01c1.178-.8803 3.043-3.032 3.9264-4.9881.7852-1.9561.7852-7.6288.0981-11.1498C26.5.4895 19.2362.685 19.2362.685s-7.2637.1957-8.4416 6.1618c-.6871 3.6187-.6871 8.9002.1963 10.8563.7853 1.956 2.7485 4.1078 3.9264 4.988 1.276 1.0759-.3927 4.01-.3927 4.01s-4.5153.7825-6.6747 1.4671c-1.7669.489-5.2024 2.1517-5.8895 4.01C1.2733 34.1343.6843 37.851.6843 37.851h37.3001v-.0978z" mask="url(#N)"/></g><ellipse cx="29.7673" cy="31.0115" stroke="#FFF" stroke-width="2.25" rx="20.4918" ry="20.4181"/></g><g transform="translate(834.9016 71.4249)"><use fill="#000" filter="url(#O)" xlink:href="#P"/><use fill="#F8E71C" xlink:href="#P"/><use fill="#000" filter="url(#Q)" xlink:href="#P"/><g transform="translate(10.9815 12.2908)"><mask id="S" fill="#fff"><use xlink:href="#R"/></mask><path fill="#FFF" d="M37.9844 37.753s-1.0797-4.7924-1.3742-5.6726c-.687-1.9561-4.0245-3.521-5.8895-4.01-2.1595-.5868-6.6747-1.467-6.6747-1.467s-1.7669-3.032-.3927-4.01c1.178-.8803 3.043-3.032 3.9264-4.9881.7852-1.9561.7852-7.6288.0981-11.1498C26.5.4895 19.2362.685 19.2362.685s-7.2637.1957-8.4416 6.1618c-.6871 3.6187-.6871 8.9002.1963 10.8563.7853 1.956 2.7485 4.1078 3.9264 4.988 1.276 1.0759-.3927 4.01-.3927 4.01s-4.5153.7825-6.6747 1.4671c-1.7669.489-5.2024 2.1517-5.8895 4.01C1.2733 34.1343.6843 37.851.6843 37.851h37.3001v-.0978z" mask="url(#S)"/></g><ellipse cx="29.7673" cy="31.0115" stroke="#FFF" stroke-width="2.25" rx="20.4918" ry="20.4181"/></g><g transform="translate(1033.2133 276.7163)"><use fill="#000" filter="url(#T)" xlink:href="#U"/><use fill="#417505" xlink:href="#U"/><use fill="#000" filter="url(#V)" xlink:href="#U"/><g transform="translate(10.9815 12.2908)"><mask id="X" fill="#fff"><use xlink:href="#W"/></mask><path fill="#FFF" d="M37.9844 37.753s-1.0797-4.7924-1.3742-5.6726c-.687-1.9561-4.0245-3.521-5.8895-4.01-2.1595-.5868-6.6747-1.467-6.6747-1.467s-1.7669-3.032-.3927-4.01c1.178-.8803 3.043-3.032 3.9264-4.9881.7852-1.9561.7852-7.6288.0981-11.1498C26.5.4895 19.2362.685 19.2362.685s-7.2637.1957-8.4416 6.1618c-.6871 3.6187-.6871 8.9002.1963 10.8563.7853 1.956 2.7485 4.1078 3.9264 4.988 1.276 1.0759-.3927 4.01-.3927 4.01s-4.5153.7825-6.6747 1.4671c-1.7669.489-5.2024 2.1517-5.8895 4.01C1.2733 34.1343.6843 37.851.6843 37.851h37.3001v-.0978z" mask="url(#X)"/></g><ellipse cx="29.7673" cy="31.0115" stroke="#FFF" stroke-width="2.25" rx="20.4918" ry="20.4181"/></g></g></svg>